<?xml version="1.0" encoding="utf-8"?>
<!-- Generator: Adobe Illustrator 24.2.1, SVG Export Plug-In . SVG Version: 6.00 Build 0)  -->
<svg version="1.1" id="Layer_1" xmlns="http://www.w3.org/2000/svg" xmlns:xlink="http://www.w3.org/1999/xlink" x="0px" y="0px"
	 viewBox="0 0 1374.8 921.3" style="enable-background:new 0 0 1374.8 921.3;" xml:space="preserve">
<style type="text/css">
	.st0{fill-rule:evenodd;clip-rule:evenodd;fill:#FFFFFF;}
	.st1{clip-path:url(#SVGID_2_);}
	.st2{fill-rule:evenodd;clip-rule:evenodd;fill:#FFFFFF;stroke:#EB6101;stroke-width:1.7133;stroke-miterlimit:22.9256;}
	.st3{fill:#FFFFFF;}
	.st4{font-family:'Montserrat-Medium';}
	.st5{font-size:67.4844px;}
</style>
<ellipse transform="matrix(0.1392 -0.9903 0.9903 0.1392 45.5861 974.0416)" class="st0" cx="583.1" cy="460.8" rx="25.9" ry="25.9"/>
<g>
	<defs>
		
			<ellipse id="SVGID_1_" transform="matrix(0.1392 -0.9903 0.9903 0.1392 45.5861 974.0416)" cx="583.1" cy="460.8" rx="25.9" ry="25.9"/>
	</defs>
	<clipPath id="SVGID_2_">
		<use xlink:href="#SVGID_1_"  style="overflow:visible;"/>
	</clipPath>
	<g class="st1">
		<path class="st2" d="M572.3,478c-0.6,0-1.2-0.1-1.7-0.3c-0.6-0.2-1-0.5-1.5-0.9c-0.9-0.8-1.3-1.8-1.3-3v-11.9c0-2.1,0.4-4.1,1.2-6
			c0.8-1.9,1.9-3.6,3.4-5c1.5-1.5,3.1-2.6,5-3.4c1.9-0.8,3.9-1.2,6-1.2c2.1,0,4.2,0.4,6.1,1.2c1.9,0.8,3.7,1.9,5.2,3.4
			c1.5,1.5,2.7,3.1,3.5,5c0.8,1.9,1.3,3.9,1.3,6c0,6.8,0,13.7,0,20.5c0,0.5,0,3.6,0,4.1c1.3,8.7,12.8,7.6,14,0.2
			c0.5-3.1,0.1-9.3,0.1-12.7c0-5.3,8.8-6.2,8.8,0.4v11c0,21.6-31.7,20.7-31.7,0.9c0-8.2,0.1-16.1,0.1-24.3c0-0.9-0.2-1.8-0.6-2.6
			c-0.4-0.9-0.9-1.6-1.6-2.2c-0.7-0.6-1.5-1.1-2.3-1.5c-0.9-0.3-1.8-0.5-2.7-0.5c-0.9,0-1.8,0.2-2.6,0.5c-0.8,0.3-1.5,0.8-2.1,1.4
			c-0.6,0.6-1.1,1.3-1.5,2.2c-0.4,0.8-0.6,1.7-0.6,2.6v12c0,1.2-0.4,2.2-1.2,3C574.5,477.6,573.5,478,572.3,478z"/>
	</g>
</g>
<text transform="matrix(1 0 0 1 612.5474 479.4795)"><tspan x="0" y="0" class="st3 st4 st5">n</tspan><tspan x="46" y="0" class="st3 st4 st5">aicee.</tspan></text>
</svg>
