<svg xmlns="http://www.w3.org/2000/svg" xmlns:xlink="http://www.w3.org/1999/xlink" viewBox="0 0 261.51 74.82"><defs><style>.cls-1{fill:none;}.cls-2,.cls-4,.cls-5{fill:#eb6101;}.cls-3{clip-path:url(#clip-path);}.cls-4{stroke:#fff;stroke-miterlimit:22.93;stroke-width:1.71px;fill-rule:evenodd;}.cls-5{font-size:57.04px;font-family:Montserrat-Medium, Montserrat;font-weight:500;}.cls-6{letter-spacing:-0.01em;}</style><clipPath id="clip-path"><circle class="cls-1" cx="25.93" cy="33.43" r="25.93" transform="translate(-10.78 54.46) rotate(-82)"/></clipPath></defs><g id="Layer_2" data-name="Layer 2"><g id="Layer_1-2" data-name="Layer 1"><circle class="cls-2" cx="25.93" cy="33.43" r="25.93" transform="translate(-10.78 54.46) rotate(-82)"/><g class="cls-3"><path class="cls-4" d="M15.14,50.67A4.64,4.64,0,0,1,12,49.42a4,4,0,0,1-1.35-3V34.51a15.28,15.28,0,0,1,1.22-6,15.92,15.92,0,0,1,8.4-8.42,15.25,15.25,0,0,1,6-1.2,15.87,15.87,0,0,1,6.1,1.2A16.16,16.16,0,0,1,41,28.49a14.8,14.8,0,0,1,1.26,6q0,10.27,0,20.54c0,.51,0,3.62,0,4.14,1.26,8.71,12.79,7.56,14,.2.52-3.13.09-9.33.09-12.75,0-5.3,8.76-6.18,8.76.35V58c0,21.55-31.68,20.73-31.68.88,0-8.17.07-16.14.07-24.33a6.65,6.65,0,0,0-.63-2.65,7,7,0,0,0-1.64-2.22A7.58,7.58,0,0,0,29,28.19a7.25,7.25,0,0,0-2.7-.53,7,7,0,0,0-2.65.51,6.44,6.44,0,0,0-2.13,1.41A7.09,7.09,0,0,0,20,31.74a6.8,6.8,0,0,0-.57,2.62v12a4,4,0,0,1-1.25,3A4.13,4.13,0,0,1,15.14,50.67Z"/></g><text class="cls-5" transform="translate(57.75 48.49)">nai<tspan class="cls-6" x="88.87" y="0">c</tspan><tspan x="120.99" y="0">ee.</tspan></text></g></g></svg>